<?xml version="1.0" encoding="UTF-8" standalone="no"?>
<!-- Created with Inkscape (http://www.inkscape.org/) -->

<svg
   width="100mm"
   height="100.00001mm"
   viewBox="0 0 100 100.00001"
   version="1.1"
   id="svg1"
   xml:space="preserve"
   xmlns:inkscape="http://www.inkscape.org/namespaces/inkscape"
   xmlns:sodipodi="http://sodipodi.sourceforge.net/DTD/sodipodi-0.dtd"
   xmlns="http://www.w3.org/2000/svg"
   xmlns:svg="http://www.w3.org/2000/svg"><sodipodi:namedview
     id="namedview1"
     pagecolor="#ffffff"
     bordercolor="#000000"
     borderopacity="0.25"
     inkscape:showpageshadow="2"
     inkscape:pageopacity="0.0"
     inkscape:pagecheckerboard="0"
     inkscape:deskcolor="#d1d1d1"
     inkscape:document-units="mm"
     inkscape:export-bgcolor="#ffffff00"><inkscape:page
       x="0"
       y="0"
       width="100"
       height="100.00001"
       id="page2"
       margin="0"
       bleed="0" /></sodipodi:namedview><defs
     id="defs1" /><g
     inkscape:label="Layer 1"
     inkscape:groupmode="layer"
     id="layer1"
     transform="translate(-7.1868683,-7.011836)"><path
       fill="#154f92"
       d="m 57.186871,15.076352 c 23.176003,0 41.935482,18.755846 41.935482,41.935483 0,23.176008 -18.755845,41.935487 -41.935482,41.935487 -23.176011,0 -41.935486,-18.755844 -41.935486,-41.935487 0,-23.176008 18.755846,-41.935483 41.935486,-41.935483 m 0,-8.0645162 c -27.614317,0 -50.0000025,22.3856852 -50.0000025,49.9999992 0,27.614316 22.3856855,50.000005 50.0000025,50.000005 27.614311,0 49.999999,-22.385689 49.999999,-50.000005 0,-27.614314 -22.385688,-49.9999992 -49.999999,-49.9999992 z m 0,11.2903222 c -21.378833,0 -38.70968,17.330847 -38.70968,38.709677 0,21.378835 17.330847,38.709676 38.70968,38.709676 21.37883,0 38.70967,-17.330841 38.70967,-38.709676 0,-21.37883 -17.33084,-38.709677 -38.70967,-38.709677 z m 0,8.870968 c 4.008463,0 7.258065,3.249597 7.258065,7.258064 0,4.008468 -3.249602,7.258065 -7.258065,7.258065 -4.008471,0 -7.258067,-3.249597 -7.258067,-7.258065 0,-4.008467 3.249596,-7.258064 7.258067,-7.258064 z m 23.738101,19.762701 c -5.788706,1.366734 -11.191731,2.570161 -16.560481,3.186896 0.171572,20.367543 2.481047,24.808869 5.04778,31.375206 0.729236,1.866935 -0.192946,3.971369 -2.059881,4.700597 -1.867132,0.729236 -3.971567,-0.192938 -4.700802,-2.059873 -1.755042,-4.497584 -3.444758,-8.192746 -4.488105,-15.836497 h -1.952827 c -1.041733,7.631254 -2.728629,11.332261 -4.488304,15.836497 -0.72883,1.865921 -2.832661,2.789513 -4.700605,2.059873 -1.866935,-0.729228 -2.789113,-2.833868 -2.059879,-4.700597 2.563105,-6.560691 4.876008,-10.996172 5.047782,-31.375206 -5.368749,-0.616533 -10.771773,-1.81996 -16.560685,-3.186896 -1.733871,-0.409476 -2.807661,-2.146774 -2.398185,-3.880847 0.409476,-1.734072 2.146573,-2.807661 3.880846,-2.398185 19.49315,4.602621 25.057056,4.593347 44.511093,0 1.733668,-0.409274 3.471366,0.664113 3.880843,2.398185 0.409073,1.734073 -0.664717,3.471573 -2.39859,3.880847 z"
       id="path1"
       style="fill:#58cd36;fill-opacity:1;stroke-width:0.201613" /></g></svg>
