<?xml version="1.0" encoding="UTF-8" standalone="no"?>
<!-- Created with Inkscape (http://www.inkscape.org/) -->

<svg
   width="100.00001mm"
   height="99.999992mm"
   viewBox="0 0 100.00001 99.999992"
   version="1.1"
   id="svg1"
   xml:space="preserve"
   xmlns:inkscape="http://www.inkscape.org/namespaces/inkscape"
   xmlns:sodipodi="http://sodipodi.sourceforge.net/DTD/sodipodi-0.dtd"
   xmlns="http://www.w3.org/2000/svg"
   xmlns:svg="http://www.w3.org/2000/svg"><sodipodi:namedview
     id="namedview1"
     pagecolor="#ffffff"
     bordercolor="#000000"
     borderopacity="0.25"
     inkscape:showpageshadow="2"
     inkscape:pageopacity="0.0"
     inkscape:pagecheckerboard="0"
     inkscape:deskcolor="#d1d1d1"
     inkscape:document-units="mm"
     inkscape:export-bgcolor="#ffffff00"><inkscape:page
       x="0"
       y="0"
       width="100.00001"
       height="99.999992"
       id="page2"
       margin="0"
       bleed="0" /></sodipodi:namedview><defs
     id="defs1" /><g
     inkscape:label="Layer 1"
     inkscape:groupmode="layer"
     id="layer1"
     transform="translate(-85.940886,-118.41996)"><path
       fill="#154f92"
       d="m 135.94089,126.48447 c 23.176,0 41.93548,18.75585 41.93548,41.93549 0,23.17601 -18.75584,41.93548 -41.93548,41.93548 -23.17601,0 -41.935487,-18.75584 -41.935487,-41.93548 0,-23.17601 18.755847,-41.93549 41.935487,-41.93549 m 0,-8.06451 c -27.61432,0 -50.000004,22.38568 -50.000004,50 0,27.61431 22.385684,50 50.000004,50 27.61431,0 50,-22.38569 50,-50 0,-27.61432 -22.38569,-50 -50,-50 z m 0,11.29032 c -21.37883,0 -38.709681,17.33085 -38.709681,38.70968 0,21.37883 17.330851,38.70967 38.709681,38.70967 21.37883,0 38.70967,-17.33084 38.70967,-38.70967 0,-21.37883 -17.33084,-38.70968 -38.70967,-38.70968 z m 0,8.87097 c 4.00846,0 7.25806,3.2496 7.25806,7.25806 0,4.00847 -3.2496,7.25807 -7.25806,7.25807 -4.00847,0 -7.25807,-3.2496 -7.25807,-7.25807 0,-4.00846 3.2496,-7.25806 7.25807,-7.25806 z m 23.7381,19.7627 c -5.78871,1.36673 -11.19173,2.57016 -16.56048,3.1869 0.17157,20.36754 2.48105,24.80886 5.04778,31.3752 0.72923,1.86694 -0.19295,3.97137 -2.05988,4.7006 -1.86713,0.72923 -3.97157,-0.19294 -4.7008,-2.05987 -1.75505,-4.49759 -3.44476,-8.19275 -4.48811,-15.8365 h -1.95283 c -1.04173,7.63125 -2.72863,11.33226 -4.4883,15.8365 -0.72883,1.86592 -2.83266,2.78951 -4.70061,2.05987 -1.86693,-0.72923 -2.78911,-2.83387 -2.05987,-4.7006 2.5631,-6.56069 4.876,-10.99617 5.04778,-31.3752 -5.36875,-0.61654 -10.77178,-1.81996 -16.56069,-3.1869 -1.73387,-0.40948 -2.80766,-2.14677 -2.39818,-3.88085 0.40947,-1.73407 2.14657,-2.80766 3.88084,-2.39818 19.49315,4.60262 25.05706,4.59334 44.5111,0 1.73366,-0.40928 3.47136,0.66411 3.88084,2.39818 0.40907,1.73408 -0.66472,3.47158 -2.39859,3.88085 z"
       id="path2"
       style="fill:#072a6c;fill-opacity:1;stroke-width:0.201613" /></g></svg>
