<?xml version="1.0" encoding="UTF-8" standalone="no"?>
<!-- Created with Inkscape (http://www.inkscape.org/) -->

<svg
   width="30.812912mm"
   height="29.993746mm"
   viewBox="0 0 30.812912 29.993746"
   version="1.1"
   id="svg1"
   sodipodi:docname="Secureshift.svg"
   inkscape:version="1.4.3 (0d15f75042, 2025-12-25)"
   xmlns:inkscape="http://www.inkscape.org/namespaces/inkscape"
   xmlns:sodipodi="http://sodipodi.sourceforge.net/DTD/sodipodi-0.dtd"
   xmlns:xlink="http://www.w3.org/1999/xlink"
   xmlns="http://www.w3.org/2000/svg"
   xmlns:svg="http://www.w3.org/2000/svg">
  <sodipodi:namedview
     id="namedview1"
     pagecolor="#ffffff"
     bordercolor="#000000"
     borderopacity="0.25"
     inkscape:showpageshadow="2"
     inkscape:pageopacity="0.0"
     inkscape:pagecheckerboard="0"
     inkscape:deskcolor="#d1d1d1"
     inkscape:document-units="mm"
     inkscape:zoom="1.9876574"
     inkscape:cx="601.96492"
     inkscape:cy="626.11395"
     inkscape:window-width="1514"
     inkscape:window-height="803"
     inkscape:window-x="0"
     inkscape:window-y="0"
     inkscape:window-maximized="1"
     inkscape:current-layer="layer1"
     showguides="true">
    <inkscape:page
       x="0"
       y="0"
       width="30.812912"
       height="29.993746"
       id="page2"
       margin="0"
       bleed="0" />
  </sodipodi:namedview>
  <defs
     id="defs1">
    <linearGradient
       id="linearGradient108">
      <stop
         style="stop-color:#072a6c;stop-opacity:1;"
         offset="0"
         id="stop170" />
      <stop
         style="stop-color:#58cd36;stop-opacity:1;"
         offset="1"
         id="stop171" />
    </linearGradient>
    <linearGradient
       id="linearGradient154">
      <stop
         style="stop-color:#041b3e;stop-opacity:1;"
         offset="0"
         id="stop153" />
      <stop
         style="stop-color:#367e20;stop-opacity:1;"
         offset="1"
         id="stop154" />
    </linearGradient>
    <linearGradient
       inkscape:collect="always"
       xlink:href="#linearGradient154"
       id="linearGradient344"
       gradientUnits="userSpaceOnUse"
       x1="178.9581"
       y1="155.07657"
       x2="200.00668"
       y2="154.85335" />
    <linearGradient
       inkscape:collect="always"
       xlink:href="#linearGradient108"
       id="linearGradient368"
       x1="178.72049"
       y1="154.8685"
       x2="200.00668"
       y2="154.85333"
       gradientUnits="userSpaceOnUse" />
  </defs>
  <g
     inkscape:label="Layer 1"
     inkscape:groupmode="layer"
     id="layer1"
     transform="translate(-169.66797,-150.02979)">
    <g
       id="g370"
       transform="translate(0.47339693,10.173417)">
      <path
         id="path350"
         style="fill:url(#linearGradient344);stroke-width:0.264583"
         d="m 179.19578,142.87655 0.90124,2.78381 c 2.92071,1.94206 6.37647,4.53274 8.46563,6.39031 l -1.19373,-3.67368 c -2.83736,-2.15666 -6.12858,-4.40217 -8.17262,-5.50044 z m -6.63319,4.84828 1.01441,3.12178 c 3.58011,2.59179 7.03203,5.44448 7.32927,6.3593 0.29725,0.91483 -0.81858,5.25155 -2.1916,9.45265 l 1.01441,3.12177 c 1.13048,-2.98421 2.334,-6.78154 3.02566,-9.59217 l -2.12132,-6.4947 c -2.21105,-1.86534 -5.40835,-4.22287 -8.07083,-5.96863 z m 17.56741,9.14983 c -0.60116,2.73926 -1.88223,6.88394 -3.10834,10.17509 l 0.9064,2.80035 5.2e-4,-5.2e-4 c 0.003,-0.006 0.006,-0.0188 0.009,-0.0243 v -5.1e-4 c 1.00913,-2.08755 2.35693,-5.85092 3.38739,-9.27386 z" />
      <path
         id="path346"
         style="fill:url(#linearGradient368);fill-opacity:1;stroke-width:0.233624"
         d="m 184.60062,139.85658 v 5.2e-4 h -0.001 c -0.0244,5e-5 -0.0511,0.002 -0.0791,0.005 -0.009,0.001 -0.0196,0.003 -0.0295,0.004 -0.0167,0.002 -0.0339,0.005 -0.0517,0.008 -0.0248,0.005 -0.0541,0.0131 -0.0811,0.0196 -0.0384,0.009 -0.0788,0.0202 -0.12144,0.0331 -0.0578,0.0175 -0.13055,0.0478 -0.19586,0.0718 -0.0998,0.0367 -0.20825,0.0807 -0.32453,0.13177 -0.1497,0.0659 -0.34796,0.17553 -0.52244,0.26355 -0.27386,0.13815 -0.57397,0.30085 -0.90021,0.48731 -0.41291,0.23621 -0.94109,0.58938 -1.41852,0.88884 v 5.1e-4 c -0.52802,0.33149 -1.09683,0.71522 -1.67586,1.10381 l -0.003,0.002 c 2.04404,1.09827 5.33526,3.34378 8.17262,5.50044 2.82543,2.14759 5.20071,4.2071 5.44515,4.95939 0.24438,0.75211 -0.46605,3.81549 -1.48931,7.21454 -1.03037,3.42265 -2.37777,7.18621 -3.38688,9.27386 0.0314,-0.001 0.0637,-0.001 0.0961,-5.2e-4 -0.0326,-3.7e-4 -0.065,-6e-5 -0.0966,0.001 -0.002,0.006 -0.006,0.0186 -0.009,0.0243 l -5.2e-4,5.2e-4 h 0.002 c 5.5e-4,1e-5 10e-4,1e-5 0.002,0 0.11997,-0.005 0.20099,-0.0168 0.31626,-0.0222 -0.03,7e-4 -0.0613,3.9e-4 -0.0925,-5.2e-4 0.0367,8.4e-4 0.0733,0.001 0.10852,-5.2e-4 h 5.2e-4 c 10e-4,-4e-5 0.002,4e-5 0.003,0 0.9223,-0.0369 1.69033,-0.10283 2.4629,-0.16846 0.003,-2.6e-4 0.007,-6.1e-4 0.01,-0.001 0.42371,-0.0361 0.9525,-0.0554 1.31103,-0.10025 0.33873,-0.0424 0.60861,-0.0924 0.87695,-0.14262 0.13559,-0.0254 0.31203,-0.0466 0.42736,-0.0739 0.12299,-0.0292 0.2248,-0.0606 0.32298,-0.092 0.0384,-0.0123 0.0881,-0.0235 0.12247,-0.0362 0.0515,-0.0189 0.0968,-0.0382 0.13901,-0.0579 0.008,-0.004 0.0181,-0.008 0.0258,-0.0114 0.0493,-0.0241 0.0923,-0.0486 0.12713,-0.0739 1.53579,-1.11581 6.45241,-16.24877 5.86579,-18.0542 -0.58662,-1.80543 -13.45938,-11.15849 -15.35772,-11.15849 z m -7.12928,4.15582 c -1.71899,1.21594 -3.46714,2.53474 -4.90875,3.71243 2.66248,1.74576 5.85978,4.10329 8.07083,5.96863 1.4655,1.23637 2.498,2.25632 2.65462,2.73834 0.15606,0.48031 -0.0775,1.90424 -0.5333,3.75636 -0.69166,2.81063 -1.89518,6.60796 -3.02566,9.59217 1.61821,0.0918 3.48215,0.0707 5.32681,0.0455 0.28163,-0.004 0.56304,-0.008 0.84284,-0.0114 0.005,-5e-5 0.009,-4.8e-4 0.0129,-5.2e-4 0.34961,-0.79242 0.7272,-1.73662 1.11001,-2.76417 1.22611,-3.29115 2.50718,-7.43583 3.10834,-10.17509 v -5.1e-4 c 0.29836,-1.35968 0.42925,-2.37295 0.3023,-2.76366 -0.12688,-0.39051 -0.82853,-1.13412 -1.86965,-2.05982 -2.08916,-1.85757 -5.54492,-4.44825 -8.46563,-6.39031 -0.95446,-0.63465 -1.85191,-1.20009 -2.62568,-1.64796 z m -6.46317,5.03587 c -0.98355,0.88235 -1.64267,1.58948 -1.76527,1.9668 -0.58662,1.80543 4.33052,16.93838 5.86631,18.0542 0.32097,0.23319 1.26948,0.41773 2.58382,0.55345 0.34464,-0.94704 0.6907,-1.95154 1.02164,-2.96416 1.37302,-4.2011 2.48885,-8.53782 2.1916,-9.45265 -0.29724,-0.91482 -3.74916,-3.76751 -7.32927,-6.3593 -0.86299,-0.62476 -1.73332,-1.23471 -2.56883,-1.79834 z" />
    </g>
  </g>
</svg>
